<svg width="575" height="60" viewBox="0 0 575 60" fill="none" xmlns="http://www.w3.org/2000/svg">
<rect width="575" height="60" rx="8" fill="#5B86E5"/>
<path d="M222.288 34.256C226.192 34.256 227.648 32.88 227.904 29.616H224.976C224.864 31.168 224.176 31.968 222.272 31.968C220.352 31.968 219.584 30.848 219.584 28.688C219.584 26.496 220.416 25.392 222.352 25.392C224.208 25.392 224.816 26.224 224.944 27.664H227.84C227.616 24.608 226.112 23.088 222.304 23.088C218.192 23.088 216.64 25.84 216.64 28.688C216.64 31.616 218.176 34.256 222.288 34.256ZM235.368 25.872C234.072 25.872 233.416 26.496 233.096 27.632V26H230.424V34H233.176V30.8C233.176 29.184 233.736 28.544 235.064 28.544H236.04V25.872H235.368ZM242.334 32.416C241.31 32.416 240.686 31.984 240.526 30.704H246.526C246.558 30.528 246.574 30.288 246.574 30.032C246.574 27.808 245.534 25.744 242.27 25.744C239.198 25.744 237.854 27.664 237.854 29.984C237.854 32.176 239.006 34.256 242.27 34.256C245.182 34.256 246.27 32.96 246.542 31.584H243.87C243.646 32.064 243.15 32.416 242.334 32.416ZM242.302 27.552C243.374 27.552 243.87 28.096 243.966 29.104H240.558C240.734 27.952 241.31 27.552 242.302 27.552ZM251.463 34.208C253.079 34.208 254.071 33.504 254.471 32.336C254.471 32.992 254.519 33.536 254.599 34H256.967C256.871 33.344 256.823 32.64 256.823 31.792V28.608C256.823 26.784 255.575 25.744 253.047 25.744C250.519 25.744 249.047 26.96 248.967 28.656H251.639C251.655 27.952 252.119 27.568 253.079 27.568C253.991 27.568 254.279 27.856 254.279 28.336C254.279 28.752 254.087 28.944 253.351 29.072L251.543 29.392C249.335 29.76 248.807 30.608 248.807 31.888C248.807 33.296 249.863 34.208 251.463 34.208ZM252.503 32.416C251.943 32.416 251.511 32.128 251.511 31.568C251.511 31.024 251.799 30.752 252.567 30.56L253.031 30.448C253.527 30.32 253.895 30.224 254.279 29.936V30.24C254.279 31.68 253.543 32.416 252.503 32.416ZM263.528 34H264.984V31.824H263.064V28.064H265.24V26H263.064V24.064H261.672L260.536 26.064L258.904 26.784V28.064H260.312V30.848C260.312 32.912 261.08 34 263.528 34ZM271.58 32.416C270.556 32.416 269.932 31.984 269.772 30.704H275.772C275.804 30.528 275.82 30.288 275.82 30.032C275.82 27.808 274.78 25.744 271.516 25.744C268.444 25.744 267.1 27.664 267.1 29.984C267.1 32.176 268.252 34.256 271.516 34.256C274.428 34.256 275.516 32.96 275.788 31.584H273.116C272.892 32.064 272.396 32.416 271.58 32.416ZM271.548 27.552C272.62 27.552 273.116 28.096 273.212 29.104H269.804C269.98 27.952 270.556 27.552 271.548 27.552ZM292.207 34H295.039L291.407 23.36H287.071L283.439 34H286.255L286.943 32H291.519L292.207 34ZM287.663 29.872L289.231 25.312L290.799 29.872H287.663ZM296.659 30C296.659 32.16 297.907 34.256 301.219 34.256C304.195 34.256 305.523 32.512 305.587 30.608H302.883C302.787 31.488 302.307 32.112 301.171 32.112C300.035 32.112 299.411 31.6 299.411 30C299.411 28.4 300.067 27.888 301.219 27.888C302.291 27.888 302.771 28.432 302.851 29.376H305.555C305.491 27.376 304.083 25.744 301.187 25.744C297.875 25.744 296.659 27.84 296.659 30ZM307.657 30C307.657 32.16 308.905 34.256 312.217 34.256C315.193 34.256 316.521 32.512 316.585 30.608H313.881C313.785 31.488 313.305 32.112 312.169 32.112C311.033 32.112 310.409 31.6 310.409 30C310.409 28.4 311.065 27.888 312.217 27.888C313.289 27.888 313.769 28.432 313.849 29.376H316.553C316.489 27.376 315.081 25.744 312.185 25.744C308.873 25.744 307.657 27.84 307.657 30ZM323.232 34.256C326.624 34.256 327.824 32.144 327.824 30C327.824 27.856 326.624 25.744 323.232 25.744C319.84 25.744 318.656 27.856 318.656 30C318.656 32.16 319.84 34.256 323.232 34.256ZM321.408 30C321.408 28.4 321.92 27.888 323.232 27.888C324.544 27.888 325.056 28.4 325.056 30C325.056 31.6 324.544 32.112 323.232 32.112C321.92 32.112 321.408 31.6 321.408 30ZM336.079 26V29.76C336.079 31.296 335.439 32.032 334.367 32.032C333.391 32.032 332.959 31.456 332.959 30.384V26H330.207V30.864C330.207 32.96 331.151 34.256 333.247 34.256C334.655 34.256 335.567 33.584 336.079 32.544V34H338.831V26H336.079ZM347.324 25.744C345.9 25.744 344.972 26.432 344.444 27.488V26H341.692V34H344.444V30.24C344.444 28.672 345.084 27.968 346.188 27.968C347.148 27.968 347.58 28.544 347.58 29.6V34H350.332V29.136C350.332 27.04 349.42 25.744 347.324 25.744ZM356.986 34H358.442V31.824H356.522V28.064H358.698V26H356.522V24.064H355.13L353.994 26.064L352.362 26.784V28.064H353.77V30.848C353.77 32.912 354.538 34 356.986 34Z" fill="white"/>
</svg>
