<svg width="268" height="63" viewBox="0 0 268 63" fill="none" xmlns="http://www.w3.org/2000/svg">
<g filter="url(#filter0_dd_1_173)">
<rect x="3.84595" y="3.53711" width="261" height="54" rx="10" fill="white"/>
<rect x="3.84595" y="3.53711" width="261" height="54" rx="10" fill="white"/>
<rect width="24" height="24" transform="translate(18.8459 18.5371)" fill="white"/>
<path fill-rule="evenodd" clip-rule="evenodd" d="M41.8859 30.7985C41.8859 29.983 41.8128 29.199 41.6769 28.4462H30.8459V32.8946H37.035C36.7684 34.3321 35.9582 35.5501 34.7403 36.3655V39.251H38.4569C40.6314 37.249 41.8859 34.3008 41.8859 30.7985Z" fill="#4285F4"/>
<path fill-rule="evenodd" clip-rule="evenodd" d="M30.8459 42.0369C33.9509 42.0369 36.554 41.0072 38.4568 39.2508L34.7402 36.3653C33.7104 37.0553 32.3931 37.4631 30.8459 37.4631C27.8506 37.4631 25.3154 35.4401 24.4111 32.7219H20.569V35.7015C22.4613 39.4599 26.3504 42.0369 30.8459 42.0369Z" fill="#34A853"/>
<path fill-rule="evenodd" clip-rule="evenodd" d="M24.4112 32.7222C24.1812 32.0322 24.0505 31.2951 24.0505 30.5372C24.0505 29.7792 24.1812 29.0422 24.4112 28.3522V25.3726H20.5691C19.7903 26.9251 19.3459 28.6815 19.3459 30.5372C19.3459 32.3928 19.7903 34.1492 20.5691 35.7017L24.4112 32.7222Z" fill="#FBBC05"/>
<path fill-rule="evenodd" clip-rule="evenodd" d="M30.8459 23.611C32.5343 23.611 34.0502 24.1912 35.242 25.3307L38.5404 22.0323C36.5488 20.1767 33.9456 19.0371 30.8459 19.0371C26.3504 19.0371 22.4613 21.6142 20.569 25.3726L24.4111 28.3521C25.3154 25.6339 27.8506 23.611 30.8459 23.611Z" fill="#EA4335"/>
<path d="M70.1409 31.9082C69.9976 33.4251 69.4377 34.61 68.4612 35.4629C67.4846 36.3092 66.1858 36.7324 64.5647 36.7324C63.4319 36.7324 62.4325 36.4655 61.5667 35.9316C60.7073 35.3913 60.0432 34.6263 59.5745 33.6367C59.1057 32.6471 58.8616 31.498 58.842 30.1895V28.8613C58.842 27.5202 59.0797 26.3385 59.5549 25.3164C60.0302 24.2943 60.7105 23.5065 61.5959 22.9531C62.4879 22.3997 63.5165 22.123 64.6819 22.123C66.2509 22.123 67.5139 22.5495 68.4709 23.4023C69.428 24.2552 69.9846 25.4596 70.1409 27.0156H67.6799C67.5627 25.9935 67.2633 25.2578 66.7815 24.8086C66.3062 24.3529 65.6064 24.125 64.6819 24.125C63.6077 24.125 62.7808 24.5189 62.2014 25.3066C61.6285 26.0879 61.3355 27.237 61.3225 28.7539V30.0137C61.3225 31.5501 61.5959 32.722 62.1428 33.5293C62.6962 34.3366 63.5035 34.7402 64.5647 34.7402C65.5347 34.7402 66.2639 34.5221 66.7522 34.0859C67.2405 33.6497 67.5497 32.9238 67.6799 31.9082H70.1409ZM71.6838 31.1562C71.6838 30.1211 71.8889 29.1901 72.2991 28.3633C72.7092 27.5299 73.2854 26.8919 74.0276 26.4492C74.7698 26 75.6226 25.7754 76.5862 25.7754C78.012 25.7754 79.1676 26.2344 80.053 27.1523C80.9449 28.0703 81.4267 29.2878 81.4983 30.8047L81.5081 31.3613C81.5081 32.403 81.3062 33.334 80.9026 34.1543C80.5055 34.9746 79.9325 35.6094 79.1838 36.0586C78.4417 36.5078 77.5823 36.7324 76.6057 36.7324C75.1148 36.7324 73.9202 36.2376 73.0217 35.248C72.1298 34.252 71.6838 32.9271 71.6838 31.2734V31.1562ZM74.0569 31.3613C74.0569 32.4486 74.2815 33.3014 74.7307 33.9199C75.1799 34.5319 75.8049 34.8379 76.6057 34.8379C77.4065 34.8379 78.0282 34.5254 78.4709 33.9004C78.9202 33.2754 79.1448 32.3607 79.1448 31.1562C79.1448 30.0885 78.9137 29.2422 78.4514 28.6172C77.9957 27.9922 77.3739 27.6797 76.5862 27.6797C75.8114 27.6797 75.1962 27.9889 74.7405 28.6074C74.2847 29.2194 74.0569 30.1374 74.0569 31.3613ZM85.717 25.9707L85.7854 27.1914C86.5667 26.2474 87.592 25.7754 88.8616 25.7754C91.0621 25.7754 92.1819 27.0352 92.2209 29.5547V36.5371H89.8479V29.6914C89.8479 29.0208 89.7014 28.526 89.4084 28.207C89.122 27.8815 88.65 27.7188 87.9924 27.7188C87.0354 27.7188 86.3225 28.1517 85.8538 29.0176V36.5371H83.4807V25.9707H85.717ZM97.6213 23.4023V25.9707H99.4866V27.7285H97.6213V33.627C97.6213 34.0306 97.6995 34.3236 97.8557 34.5059C98.0185 34.6816 98.3049 34.7695 98.7151 34.7695C98.9885 34.7695 99.2652 34.737 99.5452 34.6719V36.5078C99.0048 36.6576 98.484 36.7324 97.9827 36.7324C96.1597 36.7324 95.2483 35.7266 95.2483 33.7148V27.7285H93.51V25.9707H95.2483V23.4023H97.6213ZM103.832 36.5371H101.459V25.9707H103.832V36.5371ZM101.313 23.2266C101.313 22.862 101.427 22.5592 101.655 22.3184C101.889 22.0775 102.221 21.957 102.651 21.957C103.08 21.957 103.412 22.0775 103.647 22.3184C103.881 22.5592 103.998 22.862 103.998 23.2266C103.998 23.5846 103.881 23.8841 103.647 24.125C103.412 24.3594 103.08 24.4766 102.651 24.4766C102.221 24.4766 101.889 24.3594 101.655 24.125C101.427 23.8841 101.313 23.5846 101.313 23.2266ZM108.627 25.9707L108.696 27.1914C109.477 26.2474 110.502 25.7754 111.772 25.7754C113.972 25.7754 115.092 27.0352 115.131 29.5547V36.5371H112.758V29.6914C112.758 29.0208 112.612 28.526 112.319 28.207C112.032 27.8815 111.56 27.7188 110.903 27.7188C109.946 27.7188 109.233 28.1517 108.764 29.0176V36.5371H106.391V25.9707H108.627ZM123.959 35.502C123.263 36.3223 122.273 36.7324 120.99 36.7324C119.845 36.7324 118.976 36.3971 118.383 35.7266C117.797 35.056 117.504 34.0859 117.504 32.8164V25.9707H119.877V32.7871C119.877 34.1283 120.434 34.7988 121.547 34.7988C122.699 34.7988 123.477 34.3854 123.881 33.5586V25.9707H126.254V36.5371H124.018L123.959 35.502ZM133.324 36.7324C131.821 36.7324 130.6 36.2604 129.662 35.3164C128.731 34.3659 128.266 33.1029 128.266 31.5273V31.2344C128.266 30.1797 128.468 29.2389 128.871 28.4121C129.281 27.5788 129.854 26.931 130.59 26.4688C131.326 26.0065 132.146 25.7754 133.051 25.7754C134.49 25.7754 135.6 26.2344 136.381 27.1523C137.169 28.0703 137.563 29.3691 137.563 31.0488V32.0059H130.658C130.73 32.8783 131.02 33.5684 131.528 34.0762C132.042 34.584 132.686 34.8379 133.461 34.8379C134.548 34.8379 135.434 34.3984 136.117 33.5195L137.397 34.7402C136.974 35.3717 136.407 35.8633 135.698 36.2148C134.994 36.5599 134.203 36.7324 133.324 36.7324ZM133.041 27.6797C132.39 27.6797 131.863 27.9076 131.459 28.3633C131.062 28.819 130.808 29.4538 130.698 30.2676H135.219V30.0918C135.167 29.2975 134.955 28.6986 134.584 28.2949C134.213 27.8848 133.699 27.6797 133.041 27.6797ZM153.676 33.2656L155.356 25.9707H157.67L154.789 36.5371H152.836L150.571 29.2812L148.344 36.5371H146.391L143.5 25.9707H145.815L147.524 33.1875L149.692 25.9707H151.479L153.676 33.2656ZM161.781 36.5371H159.408V25.9707H161.781V36.5371ZM159.262 23.2266C159.262 22.862 159.376 22.5592 159.604 22.3184C159.838 22.0775 160.17 21.957 160.6 21.957C161.03 21.957 161.362 22.0775 161.596 22.3184C161.83 22.5592 161.948 22.862 161.948 23.2266C161.948 23.5846 161.83 23.8841 161.596 24.125C161.362 24.3594 161.03 24.4766 160.6 24.4766C160.17 24.4766 159.838 24.3594 159.604 24.125C159.376 23.8841 159.262 23.5846 159.262 23.2266ZM167.348 23.4023V25.9707H169.213V27.7285H167.348V33.627C167.348 34.0306 167.426 34.3236 167.582 34.5059C167.745 34.6816 168.031 34.7695 168.442 34.7695C168.715 34.7695 168.992 34.737 169.272 34.6719V36.5078C168.731 36.6576 168.211 36.7324 167.709 36.7324C165.886 36.7324 164.975 35.7266 164.975 33.7148V27.7285H163.237V25.9707H164.975V23.4023H167.348ZM173.373 27.123C174.148 26.2246 175.128 25.7754 176.313 25.7754C178.565 25.7754 179.708 27.0612 179.74 29.6328V36.5371H177.367V29.7207C177.367 28.9915 177.208 28.4772 176.889 28.1777C176.576 27.8717 176.114 27.7188 175.502 27.7188C174.552 27.7188 173.842 28.1419 173.373 28.9883V36.5371H171V21.5371H173.373V27.123ZM198.256 34.6914C197.742 35.362 197.029 35.8698 196.117 36.2148C195.206 36.5599 194.171 36.7324 193.012 36.7324C191.821 36.7324 190.766 36.4622 189.848 35.9219C188.93 35.3815 188.22 34.61 187.719 33.6074C187.224 32.5983 186.967 31.4232 186.948 30.082V28.9688C186.948 26.8203 187.462 25.1439 188.49 23.9395C189.519 22.7285 190.955 22.123 192.797 22.123C194.379 22.123 195.636 22.5137 196.567 23.2949C197.498 24.0762 198.058 25.2025 198.246 26.6738H195.824C195.551 24.9616 194.558 24.1055 192.846 24.1055C191.739 24.1055 190.896 24.5059 190.317 25.3066C189.744 26.1009 189.448 27.2695 189.428 28.8125V29.9062C189.428 31.4427 189.75 32.6374 190.395 33.4902C191.046 34.3366 191.948 34.7598 193.1 34.7598C194.363 34.7598 195.261 34.4733 195.795 33.9004V31.1172H192.865V29.2422H198.256V34.6914ZM200.297 31.1562C200.297 30.1211 200.502 29.1901 200.912 28.3633C201.323 27.5299 201.899 26.8919 202.641 26.4492C203.383 26 204.236 25.7754 205.199 25.7754C206.625 25.7754 207.781 26.2344 208.666 27.1523C209.558 28.0703 210.04 29.2878 210.112 30.8047L210.121 31.3613C210.121 32.403 209.92 33.334 209.516 34.1543C209.119 34.9746 208.546 35.6094 207.797 36.0586C207.055 36.5078 206.196 36.7324 205.219 36.7324C203.728 36.7324 202.533 36.2376 201.635 35.248C200.743 34.252 200.297 32.9271 200.297 31.2734V31.1562ZM202.67 31.3613C202.67 32.4486 202.895 33.3014 203.344 33.9199C203.793 34.5319 204.418 34.8379 205.219 34.8379C206.02 34.8379 206.642 34.5254 207.084 33.9004C207.533 33.2754 207.758 32.3607 207.758 31.1562C207.758 30.0885 207.527 29.2422 207.065 28.6172C206.609 27.9922 205.987 27.6797 205.199 27.6797C204.425 27.6797 203.809 27.9889 203.354 28.6074C202.898 29.2194 202.67 30.1374 202.67 31.3613ZM211.684 31.1562C211.684 30.1211 211.889 29.1901 212.299 28.3633C212.709 27.5299 213.285 26.8919 214.028 26.4492C214.77 26 215.623 25.7754 216.586 25.7754C218.012 25.7754 219.168 26.2344 220.053 27.1523C220.945 28.0703 221.427 29.2878 221.498 30.8047L221.508 31.3613C221.508 32.403 221.306 33.334 220.903 34.1543C220.505 34.9746 219.933 35.6094 219.184 36.0586C218.442 36.5078 217.582 36.7324 216.606 36.7324C215.115 36.7324 213.92 36.2376 213.022 35.248C212.13 34.252 211.684 32.9271 211.684 31.2734V31.1562ZM214.057 31.3613C214.057 32.4486 214.281 33.3014 214.731 33.9199C215.18 34.5319 215.805 34.8379 216.606 34.8379C217.406 34.8379 218.028 34.5254 218.471 33.9004C218.92 33.2754 219.145 32.3607 219.145 31.1562C219.145 30.0885 218.914 29.2422 218.451 28.6172C217.996 27.9922 217.374 27.6797 216.586 27.6797C215.811 27.6797 215.196 27.9889 214.74 28.6074C214.285 29.2194 214.057 30.1374 214.057 31.3613ZM223.1 31.1758C223.1 29.5352 223.484 28.2266 224.252 27.25C225.027 26.2669 226.052 25.7754 227.328 25.7754C228.533 25.7754 229.48 26.1953 230.17 27.0352L230.278 25.9707H232.416V36.2148C232.416 37.6016 231.983 38.6953 231.117 39.4961C230.258 40.2969 229.096 40.6973 227.631 40.6973C226.856 40.6973 226.098 40.5345 225.356 40.209C224.62 39.89 224.06 39.4701 223.676 38.9492L224.799 37.5234C225.528 38.3893 226.427 38.8223 227.494 38.8223C228.282 38.8223 228.904 38.6074 229.36 38.1777C229.815 37.7546 230.043 37.1296 230.043 36.3027V35.5898C229.36 36.3516 228.448 36.7324 227.309 36.7324C226.072 36.7324 225.059 36.2409 224.272 35.2578C223.49 34.2747 223.1 32.9141 223.1 31.1758ZM225.463 31.3809C225.463 32.4421 225.678 33.2786 226.108 33.8906C226.544 34.4961 227.146 34.7988 227.914 34.7988C228.871 34.7988 229.581 34.3887 230.043 33.5684V28.9199C229.594 28.1191 228.891 27.7188 227.934 27.7188C227.153 27.7188 226.544 28.028 226.108 28.6465C225.678 29.265 225.463 30.1764 225.463 31.3809ZM237.387 36.5371H235.014V21.5371H237.387V36.5371ZM244.633 36.7324C243.129 36.7324 241.908 36.2604 240.971 35.3164C240.04 34.3659 239.574 33.1029 239.574 31.5273V31.2344C239.574 30.1797 239.776 29.2389 240.18 28.4121C240.59 27.5788 241.163 26.931 241.899 26.4688C242.634 26.0065 243.455 25.7754 244.36 25.7754C245.798 25.7754 246.908 26.2344 247.69 27.1523C248.477 28.0703 248.871 29.3691 248.871 31.0488V32.0059H241.967C242.039 32.8783 242.328 33.5684 242.836 34.0762C243.351 34.584 243.995 34.8379 244.77 34.8379C245.857 34.8379 246.742 34.3984 247.426 33.5195L248.705 34.7402C248.282 35.3717 247.716 35.8633 247.006 36.2148C246.303 36.5599 245.512 36.7324 244.633 36.7324ZM244.35 27.6797C243.699 27.6797 243.171 27.9076 242.768 28.3633C242.371 28.819 242.117 29.4538 242.006 30.2676H246.528V30.0918C246.476 29.2975 246.264 28.6986 245.893 28.2949C245.522 27.8848 245.007 27.6797 244.35 27.6797Z" fill="black" fill-opacity="0.54"/>
</g>
<defs>
<filter id="filter0_dd_1_173" x="0.845947" y="0.537109" width="267" height="62" filterUnits="userSpaceOnUse" color-interpolation-filters="sRGB">
<feFlood flood-opacity="0" result="BackgroundImageFix"/>
<feColorMatrix in="SourceAlpha" type="matrix" values="0 0 0 0 0 0 0 0 0 0 0 0 0 0 0 0 0 0 127 0" result="hardAlpha"/>
<feOffset dy="2"/>
<feGaussianBlur stdDeviation="1.5"/>
<feColorMatrix type="matrix" values="0 0 0 0 0 0 0 0 0 0 0 0 0 0 0 0 0 0 0.168 0"/>
<feBlend mode="normal" in2="BackgroundImageFix" result="effect1_dropShadow_1_173"/>
<feColorMatrix in="SourceAlpha" type="matrix" values="0 0 0 0 0 0 0 0 0 0 0 0 0 0 0 0 0 0 127 0" result="hardAlpha"/>
<feOffset/>
<feGaussianBlur stdDeviation="1.5"/>
<feColorMatrix type="matrix" values="0 0 0 0 0 0 0 0 0 0 0 0 0 0 0 0 0 0 0.084 0"/>
<feBlend mode="normal" in2="effect1_dropShadow_1_173" result="effect2_dropShadow_1_173"/>
<feBlend mode="normal" in="SourceGraphic" in2="effect2_dropShadow_1_173" result="shape"/>
</filter>
</defs>
</svg>
