<svg width="312" height="62" viewBox="0 0 312 62" fill="none" xmlns="http://www.w3.org/2000/svg">
<path d="M0 8C0 3.58172 3.58172 0 8 0H304C308.418 0 312 3.58172 312 8V54C312 58.4183 308.418 62 304 62H8C3.58172 62 0 58.4183 0 54V8Z" fill="#0366FF"/>
<path d="M133.88 37.264H135.08V27.568H133.88V26.832H137.656V27.568H136.456V37.216H140.552V35.168H141.704V38H133.88V37.264ZM147.012 37.408C147.407 37.408 147.748 37.344 148.036 37.216C148.335 37.0773 148.575 36.8907 148.756 36.656C148.948 36.4107 149.087 36.128 149.172 35.808C149.268 35.4773 149.316 35.12 149.316 34.736V33.008C149.316 32.624 149.268 32.272 149.172 31.952C149.087 31.6213 148.948 31.3387 148.756 31.104C148.575 30.8587 148.335 30.672 148.036 30.544C147.748 30.4053 147.407 30.336 147.012 30.336C146.607 30.336 146.26 30.4053 145.972 30.544C145.684 30.672 145.444 30.8587 145.252 31.104C145.071 31.3387 144.932 31.6213 144.836 31.952C144.751 32.272 144.708 32.624 144.708 33.008V34.736C144.708 35.12 144.751 35.4773 144.836 35.808C144.932 36.128 145.071 36.4107 145.252 36.656C145.444 36.8907 145.684 37.0773 145.972 37.216C146.26 37.344 146.607 37.408 147.012 37.408ZM147.012 38.192C146.447 38.192 145.929 38.0907 145.46 37.888C144.991 37.6853 144.591 37.3973 144.26 37.024C143.929 36.64 143.673 36.1867 143.492 35.664C143.311 35.1307 143.22 34.5333 143.22 33.872C143.22 33.2213 143.311 32.6293 143.492 32.096C143.673 31.5627 143.929 31.1093 144.26 30.736C144.591 30.352 144.991 30.0587 145.46 29.856C145.929 29.6533 146.447 29.552 147.012 29.552C147.577 29.552 148.095 29.6533 148.564 29.856C149.033 30.0587 149.433 30.352 149.764 30.736C150.095 31.1093 150.351 31.5627 150.532 32.096C150.713 32.6293 150.804 33.2213 150.804 33.872C150.804 34.5333 150.713 35.1307 150.532 35.664C150.351 36.1867 150.095 36.64 149.764 37.024C149.433 37.3973 149.033 37.6853 148.564 37.888C148.095 38.0907 147.577 38.192 147.012 38.192ZM155.723 41.392C155.083 41.392 154.539 41.344 154.091 41.248C153.643 41.152 153.281 41.0187 153.003 40.848C152.726 40.6773 152.523 40.4693 152.395 40.224C152.278 39.9787 152.219 39.7067 152.219 39.408C152.219 39.1947 152.267 38.9973 152.363 38.816C152.459 38.6347 152.587 38.4747 152.747 38.336C152.907 38.1973 153.089 38.08 153.291 37.984C153.494 37.8773 153.702 37.7973 153.915 37.744V37.68C153.243 37.4453 152.907 36.992 152.907 36.32C152.907 35.8933 153.041 35.5573 153.307 35.312C153.585 35.0667 153.905 34.896 154.267 34.8V34.72C153.766 34.5067 153.366 34.192 153.067 33.776C152.779 33.36 152.635 32.8587 152.635 32.272C152.635 31.856 152.71 31.4827 152.859 31.152C153.019 30.8107 153.238 30.5227 153.515 30.288C153.803 30.0533 154.139 29.872 154.523 29.744C154.907 29.616 155.329 29.552 155.787 29.552C156.289 29.552 156.715 29.6213 157.067 29.76C157.43 29.888 157.734 30.048 157.979 30.24C157.99 29.6213 158.107 29.2 158.331 28.976C158.566 28.752 158.838 28.64 159.147 28.64C159.382 28.64 159.574 28.7093 159.723 28.848C159.883 28.9867 159.963 29.1733 159.963 29.408C159.963 29.632 159.889 29.8187 159.739 29.968C159.601 30.1067 159.403 30.176 159.147 30.176C158.849 30.176 158.619 30.0693 158.459 29.856H158.411V30.656C158.529 30.816 158.651 31.024 158.779 31.28C158.907 31.536 158.971 31.8667 158.971 32.272C158.971 32.688 158.891 33.0667 158.731 33.408C158.571 33.7493 158.347 34.0373 158.059 34.272C157.782 34.5067 157.446 34.688 157.051 34.816C156.667 34.944 156.246 35.008 155.787 35.008C155.489 35.008 155.206 34.976 154.939 34.912C154.662 34.9653 154.411 35.0827 154.187 35.264C153.963 35.4347 153.851 35.6427 153.851 35.888C153.851 36.1547 153.953 36.3413 154.155 36.448C154.358 36.5547 154.699 36.608 155.179 36.608H157.067C158.006 36.608 158.699 36.8 159.147 37.184C159.606 37.5573 159.835 38.096 159.835 38.8C159.835 39.5893 159.489 40.2187 158.795 40.688C158.102 41.1573 157.078 41.392 155.723 41.392ZM155.803 34.32C156.39 34.32 156.827 34.1653 157.115 33.856C157.414 33.5467 157.563 33.1253 157.563 32.592V31.968C157.563 31.4347 157.414 31.0133 157.115 30.704C156.827 30.3947 156.39 30.24 155.803 30.24C155.217 30.24 154.774 30.3947 154.475 30.704C154.187 31.0133 154.043 31.4347 154.043 31.968V32.592C154.043 33.1253 154.187 33.5467 154.475 33.856C154.774 34.1653 155.217 34.32 155.803 34.32ZM153.387 39.328C153.387 39.7547 153.569 40.0747 153.931 40.288C154.305 40.5013 154.801 40.608 155.419 40.608H156.171C156.971 40.608 157.595 40.4747 158.043 40.208C158.502 39.9413 158.731 39.584 158.731 39.136C158.731 38.7307 158.593 38.4213 158.315 38.208C158.038 38.0053 157.553 37.904 156.859 37.904H154.363C154.022 38.0533 153.771 38.2507 153.611 38.496C153.462 38.7413 153.387 39.0187 153.387 39.328ZM166.593 27.84C166.316 27.84 166.102 27.76 165.953 27.6C165.814 27.4293 165.745 27.2267 165.745 26.992V26.912C165.745 26.6773 165.814 26.48 165.953 26.32C166.102 26.1493 166.316 26.064 166.593 26.064C166.87 26.064 167.084 26.1493 167.233 26.32C167.382 26.48 167.457 26.6773 167.457 26.912V26.992C167.457 27.2267 167.382 27.4293 167.233 27.6C167.084 27.76 166.87 27.84 166.593 27.84ZM164.753 37.264H165.937V30.784L164.753 30.576V30.032L167.249 29.552V37.264H168.433V38H164.753V37.264ZM169.8 37.264H170.984V30.784L169.8 30.576V30.032L172.264 29.552V30.992H172.328C172.392 30.832 172.488 30.6667 172.616 30.496C172.755 30.3253 172.92 30.1707 173.112 30.032C173.315 29.8933 173.549 29.7813 173.816 29.696C174.083 29.6 174.376 29.552 174.696 29.552C175.688 29.552 176.397 29.8133 176.824 30.336C177.261 30.848 177.48 31.6213 177.48 32.656V37.264H178.664V38H174.984V37.264H176.168V32.768C176.168 31.232 175.523 30.464 174.232 30.464C173.997 30.464 173.763 30.496 173.528 30.56C173.304 30.624 173.096 30.7253 172.904 30.864C172.723 31.0027 172.573 31.1733 172.456 31.376C172.349 31.5787 172.296 31.8187 172.296 32.096V37.264H173.48V38H169.8V37.264Z" fill="white"/>
</svg>
